<svg xmlns="http://www.w3.org/2000/svg" width="433.855" height="346.092" viewBox="0 0 433.855 346.092"><defs><style>.a{fill:#fff;}.b{fill:#fcabb6;}.c{fill:#211715;}</style></defs><path class="a" d="M413.647,218.49c-63.21.038-367.074.321-402.931.325,0-6.264,0-192.788,0-214.608a1.993,1.993,0,0,1,2-1.994l408.446-.029a1.978,1.978,0,0,1,1.983,1.986C423.127,26.288,423,213.945,423,218.485l-9.348,0"/><path class="a" d="M38.965,225.088c0-7.11.064-5.92.064-10.163,9.477,0,25.077-.012,38.218-.012,0,5.5.045,6.293.045,10.157C69.485,225.07,51.149,225.088,38.965,225.088Z"/><path class="a" d="M91.124,217.812c0-.539,0-1.119,0-1.752h12.455v9.022l-12.488,0C91.093,222.566,91.116,220.853,91.124,217.812Z"/><path class="a" d="M142.147,217.812c0-.539,0-1.119,0-1.752H154.6v9.022l-12.489,0C142.116,222.566,142.14,220.853,142.147,217.812Z"/><path class="a" d="M10.256,225.877c0-40.926-.006-74.082-.006-118.357-3.611,0-5.629.183-8.233.183v22.932C2.013,179.777,2,248.063,2,344.084c2.2,0,4.165.008,8.262.008,0-26.021,0-73.984-.005-107.661l413.346-.024c-.008,26.6-.01,73.528-.01,107.677,2.2,0,4.165.008,8.262.008,0-59.84-.012-151.447-.012-236.572-3.611,0-5.629.183-8.232.183,0,8.278,0,15.831,0,22.932,0,29.517-.008,52.557-.008,96.116-14.143,0-101.941.007-206.348.012l-207,.012Z"/><path class="b" d="M36.143,215.476c0-7.23.074-6.02.074-10.334,10.872,0,28.769-.012,43.846-.012,0,5.591.051,6.4.051,10.327C71.157,215.457,50.121,215.476,36.143,215.476Z"/><path class="b" d="M52.864,215.056c0-8.094.017-6.74.017-11.57,2.6,0,6.89-.013,10.5-.013,0,6.259.012,7.164.012,11.562C61.248,215.035,56.211,215.056,52.864,215.056Z"/><path class="b" d="M91.126,216.06h12.455v9.017c9.767,0,22.154.01,27.838.01,0-5.446-.047-5.775-.047-9.025-6.969,0-30.582-.009-40.246-.009,0,.473,0,.908,0,1.326C91.125,216.963,91.126,216.53,91.126,216.06Z"/><path class="b" d="M142.149,216.06H154.6v9.017c9.766,0,22.153.01,27.837.01,0-5.446-.047-5.775-.047-9.025-6.969,0-30.581-.009-40.246-.009,0,.473,0,.908,0,1.326C142.149,216.963,142.149,216.53,142.149,216.06Z"/><path class="c" d="M12.256,225.877q0-45.314-.006-90.627V107.52a2.029,2.029,0,0,0-2-2c-2.746.011-5.487.169-8.233.183a2.03,2.03,0,0,0-2,2q0,39.808-.006,79.617Q.005,233.709,0,280.1q0,31.992,0,63.985a2.028,2.028,0,0,0,2,2q4.131,0,8.262.008a2.028,2.028,0,0,0,2-2q0-41.859,0-83.718,0-11.972,0-23.943l-2,2h13.4l31.03,0,44.747,0,53.688,0,58.425,0,58.813,0,54.854,0,46.7,0,33.839,0H423.6l-2-2q-.014,41.845-.01,83.691v23.986a2.028,2.028,0,0,0,2,2q4.131,0,8.262.008a2.028,2.028,0,0,0,2-2q0-41.193,0-82.387,0-48.695-.007-97.388,0-28.4,0-56.8a2.029,2.029,0,0,0-2-2c-2.746.011-5.487.169-8.232.183a2.03,2.03,0,0,0-2,2q0,44.306-.008,88.61,0,15.219,0,30.438l2-2-44.292,0-88.708,0-113.052.007-101.484,0-62,0H10.256l2,2v-.9c0-2.574-4-2.578-4,0v.9a2.029,2.029,0,0,0,2,2l55.548,0,97.825-.006,113.82-.006,92.929,0,50.775,0H423.6a2.028,2.028,0,0,0,2-2q0-44.919.007-89.84,0-14.6,0-29.208l-2,2c2.745-.014,5.486-.172,8.232-.183l-2-2q0,50.222,0,100.443,0,46.181.006,92.362,0,21.883,0,43.767l2-2q-4.131,0-8.262-.008l2,2q0-43.787,0-87.574,0-10.051,0-20.1a2.029,2.029,0,0,0-2-2h-12.1l-30.014,0-44.006,0-53.231,0-58.25,0-58.919,0-55.243,0-47.371,0-34.79,0H10.257a2.029,2.029,0,0,0-2,2q0,43.831.005,87.663v20l2-2q-4.131,0-8.262-.008l2,2q0-53.93,0-107.859,0-40.929.009-81.86,0-23.331,0-46.662l-2,2c2.746-.014,5.487-.172,8.233-.183l-2-2q0,46.175,0,92.347,0,13.005,0,26.01C8.256,228.451,12.256,228.455,12.256,225.877Z"/><path class="a" d="M423.6,226.752"/><path class="c" d="M423.6,228.752c2.574,0,2.578-4,0-4s-2.578,4,0,4Z"/><path class="c" d="M423.61,123.657h8.233a2,2,0,0,0,0-4H423.61a2,2,0,0,0,0,4Z"/><path class="c" d="M2.017,123.657H10.25a2,2,0,0,0,0-4H2.017a2,2,0,1,0,0,4Z"/><path class="c" d="M39,216.8q-14.139.011-28.28.02l2,2V8.035c0-.646-.338-3.493.095-3.827.545-.42,3.139,0,3.848,0H51.3l42.724,0,51.488,0,56.474,0,57.535,0,54.879,0,47.84,0h57.735c.867,0,.993-.217,1.159.492a20.667,20.667,0,0,1,0,4.314q0,3.067,0,6.134,0,8.391-.01,16.782-.015,23.418-.031,46.836l-.036,54.291-.033,48.9L421,213.288l0,5.2,2-2h-9.35c-2.573,0-2.578,4,0,4H423a2.028,2.028,0,0,0,2-2q0-9.378.012-18.756.013-21.266.028-42.532.018-26.934.037-53.868.016-26.031.034-52.061.012-18.945.024-37.889,0-2.842,0-5.683c0-1.661.3-3.79-.44-5.3-1.632-3.35-8.449-2.207-11.64-2.207h-30.3l-43.437,0-52.193,0L229.818.2,171.885.2,116.92.2,69.4.206H20.327c-2.949,0-8.792-.974-10.754,1.578C8.4,3.315,8.717,5.577,8.717,7.42v211.4a2.03,2.03,0,0,0,2,2q14.14,0,28.28-.02c2.574,0,2.579-4,0-4Z"/><path class="c" d="M91.1,216.758q-6.919,0-13.84.02a2,2,0,1,0,0,4q6.921-.015,13.84-.02a2,2,0,1,0,0-4Z"/><path class="c" d="M142.116,216.716l-10.7.009a2,2,0,0,0,0,4l10.7-.009a2,2,0,0,0,0-4Z"/><path class="c" d="M413.647,216.49q-13.606.007-27.212.019l-39.554.032-48.385.041-53.7.046-55.514.048-6.835.006c-2.573,0-2.578,4,0,4l55.494-.048,54.12-.046,49.235-.042,40.84-.033,28.932-.022h2.584c2.574,0,2.578-4,0-4Z"/><path class="c" d="M75.247,215.458c0,3.2.044,6.408.045,9.612l2-2q-19.164,0-38.327.018l2,2c0-3.126.055-6.251.063-9.377.007-2.574-3.993-2.578-4,0-.008,3.126-.062,6.251-.063,9.377a2.029,2.029,0,0,0,2,2q19.164,0,38.327-.018a2.03,2.03,0,0,0,2-2c0-3.2-.042-6.408-.045-9.612,0-2.574-4-2.579-4,0Z"/><path class="c" d="M63.393,207.134q8.335,0,16.67,0l-2-2c0,3.443.049,6.885.051,10.327l2-2q-21.986,0-43.971.019l2,2c0-3.445.073-6.889.074-10.334l-2,2q8.331,0,16.663,0c2.574,0,2.579-4,0-4q-8.331,0-16.663,0a2.028,2.028,0,0,0-2,2c0,3.445-.073,6.889-.074,10.334a2.03,2.03,0,0,0,2,2q21.985,0,43.971-.019a2.029,2.029,0,0,0,2-2c0-3.442-.051-6.884-.051-10.327a2.03,2.03,0,0,0-2-2q-8.336,0-16.67,0c-2.573,0-2.578,4,0,4Z"/><path class="c" d="M54.864,215.056c0-3.857.017-7.713.017-11.57l-2,2c3.5,0,7-.013,10.5-.013l-2-2c0,3.854.012,7.708.012,11.562l2-2c-3.509,0-7.019.021-10.529.021a2,2,0,0,0,0,4c3.51,0,7.02-.021,10.529-.021a2.029,2.029,0,0,0,2-2c0-3.854-.012-7.708-.012-11.562a2.029,2.029,0,0,0-2-2c-3.5,0-7,.013-10.5.013a2.029,2.029,0,0,0-2,2c0,3.857-.017,7.713-.017,11.57a2,2,0,0,0,4,0Z"/><path class="c" d="M133.419,225.088c0-3.008-.046-6.016-.047-9.025a2.03,2.03,0,0,0-2-2q-16.046,0-32.089-.008H91.126a2.029,2.029,0,0,0-2,2c0,3.007-.032,6.013-.033,9.02a2.028,2.028,0,0,0,2,2q16.173,0,32.348.013h7.978c2.574,0,2.578-4,0-4q-17.006,0-34.009-.012l-6.317,0,2,2c0-3.007.032-6.013.033-9.02l-2,2q16.742,0,33.484.008h6.762l-2-2c0,3.009.046,6.017.047,9.025C129.42,227.662,133.42,227.667,133.419,225.088Z"/><path class="c" d="M101.581,216.232v8.845a2,2,0,0,0,4,0v-8.845a2,2,0,0,0-4,0Z"/><path class="c" d="M184.442,225.088c0-3.008-.045-6.016-.047-9.025a2.029,2.029,0,0,0-2-2q-16.044,0-32.089-.008h-8.157a2.03,2.03,0,0,0-2,2c0,3.007-.031,6.013-.033,9.02a2.03,2.03,0,0,0,2,2q16.174,0,32.348.013h7.978c2.574,0,2.579-4,0-4q-17,0-34.009-.012l-6.317,0,2,2c0-3.007.032-6.013.033-9.02l-2,2q16.743,0,33.485.008H182.4l-2-2c0,3.009.047,6.017.047,9.025C180.443,227.662,184.443,227.667,184.442,225.088Z"/><path class="c" d="M152.6,216.232v8.845a2,2,0,0,0,4,0v-8.845a2,2,0,0,0-4,0Z"/></svg>