<svg xmlns="http://www.w3.org/2000/svg" width="395.92" height="221.783" viewBox="0 0 395.92 221.783"><defs><style>.a{fill:#211715;}</style></defs><path class="a" d="M343.332,6.429a4,4,0,0,0-4-3.994H56.575a4,4,0,0,0-4,4V203.067c38.681,0,250,0,290.757-.014ZM334.4,35.615v156.1a2.212,2.212,0,0,1-.653,1.636c-.012.014-.025.026-.037.04-.03.028-.058.058-.089.084a2.215,2.215,0,0,1-1.621.64h-3.14l-17.772,0-24.077,0-28.792,0-31.847,0H63.921a2.435,2.435,0,0,1-2.4-2.4c0-.1,0-.2,0-.305-.215-7.166,0-14.371,0-21.539V13.773a2.435,2.435,0,0,1,2.4-2.4c.151,0,.3,0,.455,0,3.473-.062,6.953,0,10.427,0H332a2.435,2.435,0,0,1,2.4,2.4c0,.1,0,.2,0,.3C334.615,21.243,334.4,28.448,334.4,35.615Z"/><path class="a" d="M197.96,206.323H167.292v1.722s-.111,3.833,3.556,3.833h54.225c3.666,0,3.555-3.833,3.555-3.833v-1.722H197.96Z"/><path class="a" d="M197.957,202.368H26.5c-7.9,0-15.868-.3-23.764,0-.11,0-.222,0-.332,0a2.435,2.435,0,0,0-2.4,2.4v5.379c0,1.4-.082,2.543.9,3.665a22.6,22.6,0,0,0,9.011,5.706c5.27,2.015,10.859,2.261,16.425,2.261H364.342c2.631,0,5.262.008,7.894,0,7.762-.022,17.488-1.774,22.852-8.054.969-1.134.825-2.353.825-3.748v-5.209a2.435,2.435,0,0,0-2.4-2.4H222c-7.881,0-15.829-.3-23.706,0-.11,0-.221,0-.332,0-3.088,0-3.093,4.8,0,4.8H385.6a63.157,63.157,0,0,0,7.586,0,2.829,2.829,0,0,1,.332,0l-2.4-2.4v5.379c0,.376-.027.759,0,1.133.1,1.359-.513-.456.687-1.078-.172.09-.333.4-.476.536a22.441,22.441,0,0,1-9.993,5.218c-4.226,1.065-8.5,1.023-12.812,1.023H33.04q-4.512,0-9.024,0a38.221,38.221,0,0,1-9.924-1.15A23.712,23.712,0,0,1,4.5,210.647c-1.032-.889.855-.292.3,1.206a7.273,7.273,0,0,0,0-2.047v-5.038l-2.4,2.4H173.861c7.9,0,15.868.3,23.764,0,.11,0,.222,0,.332,0C201.046,207.168,201.051,202.368,197.957,202.368Z"/><path class="a" d="M345.732,6.429c-.187-3.926-3.21-6.377-6.981-6.394-1.074-.005-2.148,0-3.222,0H62.816c-2.071,0-4.159-.078-6.229,0-3.944.149-6.412,3.237-6.412,7.01V203.067a2.435,2.435,0,0,0,2.4,2.4H192.688l36.564,0h34.942l31.4,0q12.975,0,25.951,0l18.583,0h3.2a2.436,2.436,0,0,0,2.4-2.4q0-8.513,0-17.023V6.429c0-3.089-4.8-3.094-4.8,0V196.1c0,2.193-.187,4.479,0,6.666.008.095,0,.195,0,.291l2.4-2.4-16.493,0-24.329,0-30.25,0-34.255,0H52.575l2.4,2.4V7.327c0-1.178.087-2.376,1.64-2.492.627-.047,1.275,0,1.9,0H338.434c1.134,0,2.424.047,2.5,1.594C341.078,9.5,345.879,9.522,345.732,6.429Z"/>
  <text x="90" y="100">実装中です　お待ちください</text>
</svg>